<svg width="349" height="348" xmlns="http://www.w3.org/2000/svg" xmlns:xlink="http://www.w3.org/1999/xlink" overflow="hidden"><defs><filter id="fx0" x="-10%" y="-10%" width="120%" height="120%" filterUnits="userSpaceOnUse" primitiveUnits="userSpaceOnUse"><feComponentTransfer color-interpolation-filters="sRGB"><feFuncR type="discrete" tableValues="0 0"/><feFuncG type="discrete" tableValues="0 0"/><feFuncB type="discrete" tableValues="0 0"/><feFuncA type="linear" slope="0.4" intercept="0"/></feComponentTransfer><feGaussianBlur stdDeviation="1.77778 1.77778"/></filter><clipPath id="clip1"><rect x="209" y="189" width="349" height="348"/></clipPath><clipPath id="clip2"><rect x="13" y="13" width="303" height="303"/></clipPath><clipPath id="clip3"><rect x="0" y="0" width="350" height="350"/></clipPath><clipPath id="clip4"><rect x="6" y="6" width="337" height="337"/></clipPath><clipPath id="clip5"><rect x="6" y="6" width="337" height="337"/></clipPath><clipPath id="clip6"><rect x="6" y="6" width="337" height="337"/></clipPath><clipPath id="clip7"><rect x="212" y="191" width="337" height="337"/></clipPath><clipPath id="clip8"><rect x="212" y="191" width="337" height="337"/></clipPath><clipPath id="clip9"><rect x="212" y="191" width="337" height="337"/></clipPath></defs><g clip-path="url(#clip1)" transform="translate(-209 -189)"><g clip-path="url(#clip2)" filter="url(#fx0)" transform="translate(209 188)"><g clip-path="url(#clip3)"><g clip-path="url(#clip4)"><g clip-path="url(#clip5)"><g clip-path="url(#clip6)"><path d="M284.728 111.478 254.978 81.7284 264.778 71.9284 294.528 101.678 284.728 111.478ZM215.428 121.628 225.228 111.828 254.978 141.578 245.178 151.378 215.428 121.628ZM178.328 84.1784 188.128 74.3784 215.428 101.678 205.628 111.478 178.328 84.1784ZM245.178 91.8784 274.928 121.628 265.128 131.428 235.378 101.678 245.178 91.8784ZM225.228 91.8784 197.928 64.5784 207.728 54.7784 235.028 82.0784 225.228 91.8784ZM254.978 62.1284 245.178 71.9284 217.878 44.6284 227.678 34.8284 254.978 62.1284ZM272.478 262.678 257.428 247.628 272.478 232.578 272.478 262.678ZM247.628 257.428 263.028 272.828 232.228 272.828 247.628 257.428ZM151.028 245.178 141.228 254.978 111.478 225.228 121.278 215.428 151.028 245.178ZM71.9284 265.128 81.7284 255.328 111.478 285.078 101.678 294.878 71.9284 265.128ZM44.6284 217.878 71.9284 245.178 62.1284 254.978 34.8284 228.028 44.6284 217.878ZM101.678 235.378 131.428 265.128 121.628 274.928 91.8784 245.178 101.678 235.378ZM81.7284 235.378 54.4284 208.078 64.2284 198.278 91.5284 225.578 81.7284 235.378ZM111.478 205.628 101.678 215.428 74.3784 188.128 84.1784 178.328 111.478 205.628ZM217.878 25.0284 168.528 74.3784C165.728 77.1784 164.328 80.6784 164.328 84.1784 164.328 87.6784 165.728 91.5284 168.528 93.9784L195.828 121.628 186.028 131.428 151.378 96.7784C148.578 93.9784 145.078 92.5784 141.578 92.5784 137.728 92.5784 134.228 93.9784 131.778 96.7784L125.828 102.378 118.828 89.4284 89.4284 118.828 102.378 125.828 96.7784 131.428C93.9784 134.228 92.5784 137.728 92.5784 141.228 92.5784 145.078 93.9784 148.578 96.7784 151.028L131.428 185.678 121.628 195.828 94.3284 168.528C91.5284 165.728 88.0284 164.328 84.5284 164.328 80.6784 164.328 77.1784 165.728 74.7284 168.528L25.0284 217.878C22.2284 220.678 20.8284 224.178 20.8284 228.028 20.8284 231.878 22.2284 235.378 25.0284 237.828L91.8784 304.678C94.3284 307.128 97.8284 308.528 101.678 308.528 105.528 308.528 109.028 307.128 111.478 304.328L160.828 254.978C163.628 252.178 165.028 248.678 165.028 245.178 165.028 241.678 163.628 237.828 160.828 235.378L131.078 205.628 140.878 195.828 175.528 230.478C178.328 233.278 181.828 234.678 185.328 234.678 189.178 234.678 192.678 233.278 195.128 230.478L204.928 220.328 215.428 230.828C196.878 254.278 192.678 282.628 207.728 297.328L217.878 286.828 270.378 287.178C271.428 294.178 277.728 299.428 285.078 299.078 292.428 298.728 298.028 292.778 298.028 285.428 298.378 278.078 292.778 272.128 285.778 271.078L286.128 218.578 296.628 208.078C281.928 193.378 253.578 197.228 230.128 215.778L219.628 205.278 230.128 195.828C232.928 193.028 234.328 189.528 234.328 186.028 234.328 182.178 232.928 178.678 230.128 176.228L195.478 141.578 205.278 131.778 235.028 161.528C237.828 164.328 241.328 165.728 244.828 165.728 248.328 165.728 252.178 164.328 254.628 161.528L303.978 111.828C306.778 109.028 308.178 105.528 308.178 102.028 308.178 98.1784 306.778 94.6784 303.978 92.2284L237.828 25.0284C235.028 22.2284 231.528 20.8284 228.028 20.8284 224.178 20.8284 220.678 22.2284 217.878 25.0284Z" fill="#2F5597"/></g></g></g></g></g><g clip-path="url(#clip7)"><g clip-path="url(#clip8)"><g clip-path="url(#clip9)"><path d="M490.9 296.65 461.15 266.9 470.95 257.1 500.7 286.85 490.9 296.65ZM421.6 306.8 431.4 297 461.15 326.75 451.35 336.55 421.6 306.8ZM384.5 269.35 394.3 259.55 421.6 286.85 411.8 296.65 384.5 269.35ZM451.35 277.05 481.1 306.8 471.3 316.6 441.55 286.85 451.35 277.05ZM431.4 277.05 404.1 249.75 413.9 239.95 441.2 267.25 431.4 277.05ZM461.15 247.3 451.35 257.1 424.05 229.8 433.85 220 461.15 247.3ZM478.65 447.85 463.6 432.8 478.65 417.75 478.65 447.85ZM453.8 442.6 469.2 458 438.4 458 453.8 442.6ZM357.2 430.35 347.4 440.15 317.65 410.4 327.45 400.6 357.2 430.35ZM278.1 450.3 287.9 440.5 317.65 470.25 307.85 480.05 278.1 450.3ZM250.8 403.05 278.1 430.35 268.3 440.15 241 413.2 250.8 403.05ZM307.85 420.55 337.6 450.3 327.8 460.1 298.05 430.35 307.85 420.55ZM287.9 420.55 260.6 393.25 270.4 383.45 297.7 410.75 287.9 420.55ZM317.65 390.8 307.85 400.6 280.55 373.3 290.35 363.5 317.65 390.8ZM424.05 210.2 374.7 259.55C371.9 262.35 370.5 265.85 370.5 269.35 370.5 272.85 371.9 276.7 374.7 279.15L402 306.8 392.2 316.6 357.55 281.95C354.75 279.15 351.25 277.75 347.75 277.75 343.9 277.75 340.4 279.15 337.95 281.95L332 287.55 325 274.6 295.6 304 308.55 311 302.95 316.6C300.15 319.4 298.75 322.9 298.75 326.4 298.75 330.25 300.15 333.75 302.95 336.2L337.6 370.85 327.8 381 300.5 353.7C297.7 350.9 294.2 349.5 290.7 349.5 286.85 349.5 283.35 350.9 280.9 353.7L231.2 403.05C228.4 405.85 227 409.35 227 413.2 227 417.05 228.4 420.55 231.2 423L298.05 489.85C300.5 492.3 304 493.7 307.85 493.7 311.7 493.7 315.2 492.3 317.65 489.5L367 440.15C369.8 437.35 371.2 433.85 371.2 430.35 371.2 426.85 369.8 423 367 420.55L337.25 390.8 347.05 381 381.7 415.65C384.5 418.45 388 419.85 391.5 419.85 395.35 419.85 398.85 418.45 401.3 415.65L411.1 405.5 421.6 416C403.05 439.45 398.85 467.8 413.9 482.5L424.05 472 476.55 472.35C477.6 479.35 483.9 484.6 491.25 484.25 498.6 483.9 504.2 477.95 504.2 470.6 504.55 463.25 498.95 457.3 491.95 456.25L492.3 403.75 502.8 393.25C488.1 378.55 459.75 382.4 436.3 400.95L425.8 390.45 436.3 381C439.1 378.2 440.5 374.7 440.5 371.2 440.5 367.35 439.1 363.85 436.3 361.4L401.65 326.75 411.45 316.95 441.2 346.7C444 349.5 447.5 350.9 451 350.9 454.5 350.9 458.35 349.5 460.8 346.7L510.15 297C512.95 294.2 514.35 290.7 514.35 287.2 514.35 283.35 512.95 279.85 510.15 277.4L444 210.2C441.2 207.4 437.7 206 434.2 206 430.35 206 426.85 207.4 424.05 210.2Z" fill="#2F5597"/></g></g></g></g></svg>